#!OML:ASF H:\Terrain\Patient Classification 1\Walking\steve\steve.ASF
:FULLY-SPECIFIED
:DEGREES
217
root 9.15863 16.194 11.7148 4.36745 -0.0557906 -0.884918
lowerback 1.76971 0.851017 1.55946
upperback -2.38809 1.28271 2.94598
thorax -3.48451 0.640893 2.09944
lowerneck -10.2316 -0.362264 -4.23151
upperneck 8.04637 0.345426 -2.0675
head 4.5285 -0.0798104 0.0830664
rclavicle 3.65267e-015 -1.51076e-014
rhumerus -70.5681 -35.4622 -38.1856
rradius 14.1431
rwrist 33.0061
rhand -13.5617 -38.5452
rfingers 7.12502
rthumb 12.5517 -68.1482
lclavicle 3.65267e-015 -1.51076e-014
lhumerus -18.0727 -5.08918 89.2064
lradius 50.4823
lwrist 31.5955
lhand -27.9793 -15.7427
lfingers 7.12502
lthumb -1.36589 14.2326
rfemur -33.867 1.72642 25.8574
rtibia 42.4332
rfoot -11.3196 7.77272
rtoes 6.99379
lfemur -5.64525 4.12466 -19.9224
ltibia 62.1146
lfoot 10.1915 8.2314
ltoes -4.01052
218
root 9.15807 16.2329 11.933 4.2532 -0.213861 -0.757507
lowerback 1.74443 0.957204 1.45193
upperback -2.29877 1.41366 2.84293
thorax -3.38075 0.707475 2.04766
lowerneck -10.4088 -0.392317 -4.22981
upperneck 8.73707 0.327017 -2.04318
head 4.32028 -0.101961 0.0768293
rclavicle 8.41729e-016 -1.03368e-014
rhumerus -69.1549 -36.5341 -39.0502
rradius 13.9587
rwrist 33.8846
rhand -13.7055 -38.5018
rfingers 7.12502
rthumb 12.4131 -68.1132
lclavicle 8.41729e-016 -1.03368e-014
lhumerus -18.7911 -4.84186 89.573
lradius 48.6034
lwrist 30.5959
lhand -28.1936 -15.6982
lfingers 7.12502
lthumb -1.57285 14.2757
rfemur -32.5716 1.7141 25.7785
rtibia 41.85
rfoot -11.9352 7.86044
rtoes 6.6698
lfemur -7.53335 4.53923 -19.9804
ltibia 64.0128
lfoot 8.66062 7.44312
ltoes -5.0921
219
root 9.15477 16.2799 12.1621 4.13117 -0.637122 -0.65047
lowerback 1.56492 1.21396 1.29511
upperback -2.24892 1.74249 2.79182
thorax -3.2392 0.87483 2.07138
lowerneck -10.3542 -0.48442 -4.2849
upperneck 9.06223 0.228786 -2.13234
head 4.41302 -0.164473 0.0515066
rclavicle 1.17854e-015 2.06736e-014
rhumerus -67.0148 -36.7787 -41.3253
rradius 14.0755
rwrist 33.0699
rhand -14.3032 -38.4419
rfingers 7.12502
rthumb 11.8367 -68.0873
lclavicle 1.17854e-015 2.06736e-014
lhumerus -19.6296 -4.93729 90.1373
lradius 46.3733
lwrist 29.6429
lhand -28.4144 -16.2277
lfingers 7.12502
lthumb -1.78615 13.7446
rfemur -31.2571 2.01064 25.7129
rtibia 41.3555
rfoot -12.4042 7.89215
rtoes 4.86959
lfemur -9.22262 5.17184 -20.0018
ltibia 65.535
lfoot 6.97535 6.91813
ltoes -5.4867
220
root 9.15068 16.3331 12.3835 4.28147 -1.00425 -0.975562
lowerback 1.14137 1.44096 1.52965
upperback -2.26408 2.04122 2.88075
thorax -3.01955 1.01998 2.02918
lowerneck -10.0122 -0.544939 -4.27819
upperneck 9.08912 0.142362 -2.26312
head 4.36613 -0.212717 0.00506789
rclavicle 8.96861e-015 1.27222e-014
rhumerus -63.4679 -35.5792 -46.2809
rradius 14.8547
rwrist 29.7016
rhand -14.5034 -38.4771
rfingers 7.12502
rthumb 11.6437 -68.1335
lclavicle 8.96861e-015 1.27222e-014
lhumerus -20.4575 -4.95877 90.6635
lradius 44.2796
lwrist 29.2002
lhand -28.411 -16.5262
lfingers 7.12502
lthumb -1.78283 13.4461
rfemur -30.2869 2.38403 26.0983
rtibia 40.8958
rfoot -12.9165 7.94795
rtoes 2.63772
lfemur -11.113 5.78741 -19.5715
ltibia 66.8048
lfoot 4.99729 6.70174
ltoes -4.11067
221
root 9.14863 16.3763 12.5885 4.37622 -1.10281 -1.13221
lowerback 1.17375 1.52879 1.64047
upperback -2.45999 2.16979 2.88162
thorax -3.23972 1.0812 1.96001
lowerneck -9.61109 -0.521149 -4.19452
upperneck 9.29793 0.153257 -2.32458
head 4.36396 -0.209932 -0.0258571
rclavicle -1.47598e-014 3.97569e-015
rhumerus -60.6495 -34.607 -50.1026
rradius 15.5767
rwrist 27.4277
rhand -14.7738 -39.3602
rfingers 7.12502
rthumb 11.3829 -69.0313
lclavicle -1.47598e-014 3.97569e-015
lhumerus -21.7564 -4.57613 90.9921
lradius 42.6564
lwrist 28.6467
lhand -27.8943 -16.3875
lfingers 7.12502
lthumb -1.28387 13.5884
rfemur -29.3485 2.6411 26.2401
rtibia 40.4605
rfoot -13.2553 8.22242
rtoes 3.89203
lfemur -12.9434 6.05201 -19.4257
ltibia 67.8169
lfoot 3.37168 6.63538
ltoes -2.44835
222
root 9.14972 16.4111 12.7956 4.31704 -1.17378 -0.941705
lowerback 1.27145 1.56271 1.38056
upperback -2.60435 2.21557 2.85322
thorax -3.45399 1.11022 2.06995
lowerneck -9.37789 -0.450638 -4.44394
upperneck 9.73264 0.263305 -2.1374
head 4.45794 -0.162162 0.0792911
rclavicle 2.39784e-015 1.11319e-014
rhumerus -58.4025 -34.4228 -52.3542
rradius 16.0054
rwrist 26.6379
rhand -15.3713 -39.9838
rfingers 7.12502
rthumb 10.8067 -69.6858
lclavicle 2.39784e-015 1.11319e-014
lhumerus -23.1535 -3.60757 91.2354
lradius 41.0151
lwrist 27.2933
lhand -27.1263 -15.9911
lfingers 7.12502
lthumb -0.542046 13.988
rfemur -28.1643 2.71309 26.0214
rtibia 40.0435
rfoot -13.8107 8.63735
rtoes 3.42404
lfemur -14.4009 6.14056 -19.7932
ltibia 68.5056
lfoot 2.02543 6.44747
ltoes -2.10869
223
root 9.15338 16.4421 13.0013 4.40035 -1.26992 -1.02579
lowerback 0.718653 1.62577 1.52811
upperback -2.38181 2.27598 2.82599
thorax -2.90643 1.13712 1.97547
lowerneck -9.67611 -0.433504 -4.81726
upperneck 10.0696 0.316215 -1.68711
head 4.60955 -0.132659 0.281438
rclavicle -2.66558e-014 1.82882e-014
rhumerus -55.8555 -35.0723 -54.2538
rradius 16.1794
rwrist 26.4395
rhand -15.8081 -38.7263
rfingers 7.12502
rthumb 10.3852 -68.4498
lclavicle -2.66558e-014 1.82882e-014
lhumerus -23.6989 -2.60224 91.2632
lradius 38.8941
lwrist 25.7196
lhand -26.2274 -15.6139
lfingers 7.12502
lthumb 0.326162 14.3655
rfemur -27.0915 2.7772 26.1279
rtibia 39.6395
rfoot -14.6674 8.9485
rtoes 0.160691
lfemur -16.0654 6.3804 -19.8451
ltibia 69.0834
lfoot 0.770887 5.98419
ltoes -5.54881
